<svg width="17" height="13" viewBox="0 0 17 13" fill="none" xmlns="http://www.w3.org/2000/svg">
<path d="M15.8813 4.80859C16.0063 4.71484 16.1938 4.80859 16.1938 4.96484V11.3398C16.1938 12.1836 15.5063 12.8398 14.6938 12.8398H1.69375C0.85 12.8398 0.19375 12.1836 0.19375 11.3398V4.96484C0.19375 4.80859 0.35 4.71484 0.475 4.80859C1.19375 5.37109 2.1 6.05859 5.2875 8.37109C5.94375 8.83984 7.06875 9.87109 8.19375 9.87109C9.2875 9.87109 10.4438 8.83984 11.0688 8.37109C14.2563 6.05859 15.1625 5.37109 15.8813 4.80859ZM8.19375 8.83984C7.44375 8.87109 6.4125 7.93359 5.88125 7.55859C1.725 4.55859 1.4125 4.27734 0.475 3.52734C0.2875 3.40234 0.19375 3.18359 0.19375 2.93359V2.33984C0.19375 1.52734 0.85 0.839844 1.69375 0.839844H14.6938C15.5063 0.839844 16.1938 1.52734 16.1938 2.33984V2.93359C16.1938 3.18359 16.0688 3.40234 15.8813 3.52734C14.9438 4.27734 14.6313 4.55859 10.475 7.55859C9.94375 7.93359 8.9125 8.87109 8.19375 8.83984Z" fill="#F0FA99"/>
</svg>
